<?xml version="1.0" encoding="iso-8859-1"?>
<!DOCTYPE svg PUBLIC "-//W3C//DTD SVG 1.1//EN" "http://www.w3.org/Graphics/SVG/1.1/DTD/svg11.dtd">
<svg xmlns="http://www.w3.org/2000/svg" xmlns:xlink="http://www.w3.org/1999/xlink" version="1.1" viewBox="0 0 512 512" enable-background="new 0 0 512 512" width="512px" height="512px">
  <path d="m507.641,431.876l-224-384.002c-5.734-9.828-16.258-15.875-27.641-15.875-11.383,0-21.906,6.047-27.641,15.875l-224,384.002c-5.773,9.898-5.813,22.125-0.109,32.063 5.711,9.938 16.289,16.063 27.75,16.063h448.001c11.461,0 22.039-6.125 27.75-16.063 5.703-9.938 5.664-22.165-0.11-32.063zm-155.641-15.878l-96-48-80,48 48-80-64-16 64-16-32-48 64,32 64-48-32,64 80,16-64,32 48,64z" fill="#D80027"/>
</svg>
