<svg viewBox="-31 0 512 512" xmlns="http://www.w3.org/2000/svg"><path d="m91.515625 301c2.914063 25.90625 12.984375 49.429688 28.476563 68.796875l20.148437-20.148437 21.210937 21.210937-20.148437 20.148437c19.367187 15.492188 42.890625 25.5625 68.796875 28.476563v-28.484375h30v28.484375c25.90625-2.914063 49.429688-12.984375 68.796875-28.476563l-20.148437-20.148437 21.210937-21.210937 20.148437 20.148437c15.492188-19.367187 25.5625-42.890625 28.476563-68.796875h-28.484375v-30h28.484375c-2.914063-25.90625-12.984375-49.429688-28.476563-68.796875l-20.148437 20.148437-21.210937-21.210937 20.148437-20.148437c-19.367187-15.492188-42.890625-25.5625-68.796875-28.476563v28.484375h-30v-28.484375c-25.90625 2.914063-49.429688 12.984375-68.796875 28.476563l20.148437 20.148437-21.210937 21.210937-20.148437-20.148437c-15.492188 19.367187-25.5625 42.890625-28.476563 68.796875h28.484375v30zm118.484375-75h30v45h45v30h-75zm0 0"/><path d="m225 512c124.070312 0 225-101.929688 225-226 0-64.269531-27.222656-122.175781-70.574219-163.214844l25.574219-25.574218 19.394531 19.394531 21.210938-21.210938-60-60-21.210938 21.210938 19.394531 19.394531-27.585937 27.585938c-25.347656-18.285157-54.507813-31.59375-86.203125-38.050782v-35.535156h30v-30h-150v30h30v35.535156c-102.578125 20.902344-180 111.800782-180 220.464844 0 124.070312 100.929688 226 225 226zm0-391c90.980469 0 165 74.019531 165 165s-74.019531 165-165 165-165-74.019531-165-165 74.019531-165 165-165zm0 0"/></svg>